<mxfile host="app.diagrams.net" agent="Mozilla/5.0 (Windows NT 10.0; Win64; x64) AppleWebKit/537.36 (KHTML, like Gecko) Chrome/135.0.0.0 Safari/537.36" version="26.2.14">
  <diagram name="Page-1" id="fZVYMsjkSGyze_d0WXVF">
    <mxGraphModel dx="1507" dy="620" grid="1" gridSize="10" guides="1" tooltips="1" connect="1" arrows="1" fold="1" page="1" pageScale="1" pageWidth="850" pageHeight="1100" math="0" shadow="0">
      <root>
        <mxCell id="0" />
        <mxCell id="1" parent="0" />
        <mxCell id="XAYhjpJ8KMx_6JWatkC_-6" style="edgeStyle=orthogonalEdgeStyle;rounded=0;orthogonalLoop=1;jettySize=auto;html=1;exitX=0.5;exitY=1;exitDx=0;exitDy=0;exitPerimeter=0;" edge="1" parent="1" source="XAYhjpJ8KMx_6JWatkC_-2" target="XAYhjpJ8KMx_6JWatkC_-3">
          <mxGeometry relative="1" as="geometry" />
        </mxCell>
        <mxCell id="XAYhjpJ8KMx_6JWatkC_-2" value="&lt;b&gt;Start&lt;/b&gt;" style="strokeWidth=2;html=1;shape=mxgraph.flowchart.start_1;whiteSpace=wrap;" vertex="1" parent="1">
          <mxGeometry x="375" y="10" width="100" height="60" as="geometry" />
        </mxCell>
        <mxCell id="XAYhjpJ8KMx_6JWatkC_-5" value="" style="edgeStyle=orthogonalEdgeStyle;rounded=0;orthogonalLoop=1;jettySize=auto;html=1;" edge="1" parent="1" source="XAYhjpJ8KMx_6JWatkC_-3" target="XAYhjpJ8KMx_6JWatkC_-4">
          <mxGeometry relative="1" as="geometry" />
        </mxCell>
        <mxCell id="XAYhjpJ8KMx_6JWatkC_-22" value="False" style="edgeLabel;html=1;align=center;verticalAlign=middle;resizable=0;points=[];" vertex="1" connectable="0" parent="XAYhjpJ8KMx_6JWatkC_-5">
          <mxGeometry x="0.5879" relative="1" as="geometry">
            <mxPoint y="1" as="offset" />
          </mxGeometry>
        </mxCell>
        <mxCell id="XAYhjpJ8KMx_6JWatkC_-14" value="" style="edgeStyle=orthogonalEdgeStyle;rounded=0;orthogonalLoop=1;jettySize=auto;html=1;" edge="1" parent="1" source="XAYhjpJ8KMx_6JWatkC_-3" target="XAYhjpJ8KMx_6JWatkC_-13">
          <mxGeometry relative="1" as="geometry" />
        </mxCell>
        <mxCell id="XAYhjpJ8KMx_6JWatkC_-25" value="True" style="edgeLabel;html=1;align=center;verticalAlign=middle;resizable=0;points=[];" vertex="1" connectable="0" parent="XAYhjpJ8KMx_6JWatkC_-14">
          <mxGeometry x="-0.3672" y="-1" relative="1" as="geometry">
            <mxPoint as="offset" />
          </mxGeometry>
        </mxCell>
        <mxCell id="XAYhjpJ8KMx_6JWatkC_-3" value="&lt;b&gt;If userAge &amp;gt; 18&lt;/b&gt;" style="strokeWidth=2;html=1;shape=mxgraph.flowchart.decision;whiteSpace=wrap;" vertex="1" parent="1">
          <mxGeometry x="368" y="90" width="115" height="100" as="geometry" />
        </mxCell>
        <mxCell id="XAYhjpJ8KMx_6JWatkC_-8" value="" style="edgeStyle=orthogonalEdgeStyle;rounded=0;orthogonalLoop=1;jettySize=auto;html=1;" edge="1" parent="1" source="XAYhjpJ8KMx_6JWatkC_-4" target="XAYhjpJ8KMx_6JWatkC_-7">
          <mxGeometry relative="1" as="geometry" />
        </mxCell>
        <mxCell id="XAYhjpJ8KMx_6JWatkC_-23" value="False" style="edgeLabel;html=1;align=center;verticalAlign=middle;resizable=0;points=[];" vertex="1" connectable="0" parent="XAYhjpJ8KMx_6JWatkC_-8">
          <mxGeometry x="0.6271" y="-3" relative="1" as="geometry">
            <mxPoint y="1" as="offset" />
          </mxGeometry>
        </mxCell>
        <mxCell id="XAYhjpJ8KMx_6JWatkC_-16" value="" style="edgeStyle=orthogonalEdgeStyle;rounded=0;orthogonalLoop=1;jettySize=auto;html=1;" edge="1" parent="1" source="XAYhjpJ8KMx_6JWatkC_-4" target="XAYhjpJ8KMx_6JWatkC_-15">
          <mxGeometry relative="1" as="geometry" />
        </mxCell>
        <mxCell id="XAYhjpJ8KMx_6JWatkC_-26" value="True" style="edgeLabel;html=1;align=center;verticalAlign=middle;resizable=0;points=[];" vertex="1" connectable="0" parent="XAYhjpJ8KMx_6JWatkC_-16">
          <mxGeometry x="-0.2581" y="-4" relative="1" as="geometry">
            <mxPoint as="offset" />
          </mxGeometry>
        </mxCell>
        <mxCell id="XAYhjpJ8KMx_6JWatkC_-4" value="&lt;b&gt;If userAge &amp;gt; 13&lt;/b&gt;" style="strokeWidth=2;html=1;shape=mxgraph.flowchart.decision;whiteSpace=wrap;" vertex="1" parent="1">
          <mxGeometry x="368" y="210" width="115" height="100" as="geometry" />
        </mxCell>
        <mxCell id="XAYhjpJ8KMx_6JWatkC_-10" value="" style="edgeStyle=orthogonalEdgeStyle;rounded=0;orthogonalLoop=1;jettySize=auto;html=1;" edge="1" parent="1" source="XAYhjpJ8KMx_6JWatkC_-7" target="XAYhjpJ8KMx_6JWatkC_-9">
          <mxGeometry relative="1" as="geometry" />
        </mxCell>
        <mxCell id="XAYhjpJ8KMx_6JWatkC_-24" value="False" style="edgeLabel;html=1;align=center;verticalAlign=middle;resizable=0;points=[];" vertex="1" connectable="0" parent="XAYhjpJ8KMx_6JWatkC_-10">
          <mxGeometry x="0.7162" y="-1" relative="1" as="geometry">
            <mxPoint as="offset" />
          </mxGeometry>
        </mxCell>
        <mxCell id="XAYhjpJ8KMx_6JWatkC_-18" value="" style="edgeStyle=orthogonalEdgeStyle;rounded=0;orthogonalLoop=1;jettySize=auto;html=1;" edge="1" parent="1" source="XAYhjpJ8KMx_6JWatkC_-7" target="XAYhjpJ8KMx_6JWatkC_-17">
          <mxGeometry relative="1" as="geometry" />
        </mxCell>
        <mxCell id="XAYhjpJ8KMx_6JWatkC_-27" value="True" style="edgeLabel;html=1;align=center;verticalAlign=middle;resizable=0;points=[];" vertex="1" connectable="0" parent="XAYhjpJ8KMx_6JWatkC_-18">
          <mxGeometry x="-0.4764" y="-3" relative="1" as="geometry">
            <mxPoint as="offset" />
          </mxGeometry>
        </mxCell>
        <mxCell id="XAYhjpJ8KMx_6JWatkC_-7" value="&lt;b&gt;If userAge &amp;gt; 10&lt;/b&gt;" style="strokeWidth=2;html=1;shape=mxgraph.flowchart.decision;whiteSpace=wrap;" vertex="1" parent="1">
          <mxGeometry x="368" y="330" width="115" height="100" as="geometry" />
        </mxCell>
        <mxCell id="XAYhjpJ8KMx_6JWatkC_-20" value="" style="edgeStyle=orthogonalEdgeStyle;rounded=0;orthogonalLoop=1;jettySize=auto;html=1;" edge="1" parent="1" source="XAYhjpJ8KMx_6JWatkC_-9" target="XAYhjpJ8KMx_6JWatkC_-19">
          <mxGeometry relative="1" as="geometry" />
        </mxCell>
        <mxCell id="XAYhjpJ8KMx_6JWatkC_-28" value="True" style="edgeLabel;html=1;align=center;verticalAlign=middle;resizable=0;points=[];" vertex="1" connectable="0" parent="XAYhjpJ8KMx_6JWatkC_-20">
          <mxGeometry x="-0.3672" y="1" relative="1" as="geometry">
            <mxPoint as="offset" />
          </mxGeometry>
        </mxCell>
        <mxCell id="XAYhjpJ8KMx_6JWatkC_-32" style="edgeStyle=orthogonalEdgeStyle;rounded=0;orthogonalLoop=1;jettySize=auto;html=1;exitX=0.5;exitY=1;exitDx=0;exitDy=0;exitPerimeter=0;entryX=0;entryY=0.5;entryDx=0;entryDy=0;" edge="1" parent="1" source="XAYhjpJ8KMx_6JWatkC_-9" target="XAYhjpJ8KMx_6JWatkC_-29">
          <mxGeometry relative="1" as="geometry">
            <mxPoint x="425" y="620" as="targetPoint" />
          </mxGeometry>
        </mxCell>
        <mxCell id="XAYhjpJ8KMx_6JWatkC_-39" value="Else" style="edgeLabel;html=1;align=center;verticalAlign=middle;resizable=0;points=[];" vertex="1" connectable="0" parent="XAYhjpJ8KMx_6JWatkC_-32">
          <mxGeometry x="-0.4262" y="1" relative="1" as="geometry">
            <mxPoint as="offset" />
          </mxGeometry>
        </mxCell>
        <mxCell id="XAYhjpJ8KMx_6JWatkC_-9" value="&lt;b&gt;If userAge &amp;gt; 5&lt;/b&gt;" style="strokeWidth=2;html=1;shape=mxgraph.flowchart.decision;whiteSpace=wrap;" vertex="1" parent="1">
          <mxGeometry x="368" y="450" width="115" height="100" as="geometry" />
        </mxCell>
        <mxCell id="XAYhjpJ8KMx_6JWatkC_-35" style="edgeStyle=orthogonalEdgeStyle;rounded=0;orthogonalLoop=1;jettySize=auto;html=1;exitX=1;exitY=0.5;exitDx=0;exitDy=0;" edge="1" parent="1" source="XAYhjpJ8KMx_6JWatkC_-13" target="XAYhjpJ8KMx_6JWatkC_-31">
          <mxGeometry relative="1" as="geometry">
            <mxPoint x="740" y="139.88235294117646" as="targetPoint" />
          </mxGeometry>
        </mxCell>
        <mxCell id="XAYhjpJ8KMx_6JWatkC_-13" value="&lt;b&gt;Display, &quot;You are old enough to watch R-rated movies.&quot;&lt;/b&gt;" style="whiteSpace=wrap;html=1;strokeWidth=2;" vertex="1" parent="1">
          <mxGeometry x="520" y="110" width="120" height="60" as="geometry" />
        </mxCell>
        <mxCell id="XAYhjpJ8KMx_6JWatkC_-36" style="edgeStyle=orthogonalEdgeStyle;rounded=0;orthogonalLoop=1;jettySize=auto;html=1;exitX=1;exitY=0.5;exitDx=0;exitDy=0;" edge="1" parent="1" source="XAYhjpJ8KMx_6JWatkC_-15">
          <mxGeometry relative="1" as="geometry">
            <mxPoint x="740" y="259.88235294117646" as="targetPoint" />
          </mxGeometry>
        </mxCell>
        <mxCell id="XAYhjpJ8KMx_6JWatkC_-15" value="&lt;b&gt;Display, &quot;You are old enough to watch PG-13-rated movies.&quot;&lt;/b&gt;" style="whiteSpace=wrap;html=1;strokeWidth=2;" vertex="1" parent="1">
          <mxGeometry x="520" y="230" width="120" height="60" as="geometry" />
        </mxCell>
        <mxCell id="XAYhjpJ8KMx_6JWatkC_-37" style="edgeStyle=orthogonalEdgeStyle;rounded=0;orthogonalLoop=1;jettySize=auto;html=1;exitX=1;exitY=0.5;exitDx=0;exitDy=0;" edge="1" parent="1" source="XAYhjpJ8KMx_6JWatkC_-17">
          <mxGeometry relative="1" as="geometry">
            <mxPoint x="740" y="379.88235294117646" as="targetPoint" />
          </mxGeometry>
        </mxCell>
        <mxCell id="XAYhjpJ8KMx_6JWatkC_-17" value="&lt;b&gt;Display, &quot;You are old enough to watch PG-rated movies.&quot;&lt;/b&gt;" style="whiteSpace=wrap;html=1;strokeWidth=2;" vertex="1" parent="1">
          <mxGeometry x="520" y="350" width="120" height="60" as="geometry" />
        </mxCell>
        <mxCell id="XAYhjpJ8KMx_6JWatkC_-38" style="edgeStyle=orthogonalEdgeStyle;rounded=0;orthogonalLoop=1;jettySize=auto;html=1;exitX=1;exitY=0.5;exitDx=0;exitDy=0;" edge="1" parent="1" source="XAYhjpJ8KMx_6JWatkC_-19">
          <mxGeometry relative="1" as="geometry">
            <mxPoint x="740" y="499.8823529411766" as="targetPoint" />
          </mxGeometry>
        </mxCell>
        <mxCell id="XAYhjpJ8KMx_6JWatkC_-19" value="&lt;b&gt;Display, &quot;You are old enough to watch G-rated Movies.&quot;&lt;/b&gt;" style="whiteSpace=wrap;html=1;strokeWidth=2;" vertex="1" parent="1">
          <mxGeometry x="520" y="470" width="120" height="60" as="geometry" />
        </mxCell>
        <mxCell id="XAYhjpJ8KMx_6JWatkC_-29" value="&lt;b&gt;Display, &quot;Enter a valid age.&quot;&lt;/b&gt;" style="whiteSpace=wrap;html=1;strokeWidth=2;" vertex="1" parent="1">
          <mxGeometry x="520" y="580" width="120" height="60" as="geometry" />
        </mxCell>
        <mxCell id="XAYhjpJ8KMx_6JWatkC_-31" value="&lt;b&gt;End&lt;/b&gt;" style="strokeWidth=2;html=1;shape=mxgraph.flowchart.start_1;whiteSpace=wrap;" vertex="1" parent="1">
          <mxGeometry x="690" y="580" width="100" height="60" as="geometry" />
        </mxCell>
        <mxCell id="XAYhjpJ8KMx_6JWatkC_-34" style="edgeStyle=orthogonalEdgeStyle;rounded=0;orthogonalLoop=1;jettySize=auto;html=1;exitX=1;exitY=0.5;exitDx=0;exitDy=0;entryX=0;entryY=0.5;entryDx=0;entryDy=0;entryPerimeter=0;" edge="1" parent="1" source="XAYhjpJ8KMx_6JWatkC_-29" target="XAYhjpJ8KMx_6JWatkC_-31">
          <mxGeometry relative="1" as="geometry" />
        </mxCell>
      </root>
    </mxGraphModel>
  </diagram>
</mxfile>
